<svg width="600" height="400" viewBox="0 0 600 400" fill="none" xmlns="http://www.w3.org/2000/svg">
<path d="M416.596 116.961C411.914 125.317 401.66 126.465 385.233 124.877C372.878 123.681 361.612 122.755 349.256 116.019C340.609 111.307 333.763 104.932 328.767 98.7409C323.353 92.0336 315.796 84.3789 319.5 76.7736C324.592 66.3269 354.033 57.5289 382.622 71.9169C414.026 87.7276 421.176 108.795 416.596 116.961Z" fill="url(#paint0_linear_45_951)"/>
<path d="M498.157 184.834C489.625 189.066 478.301 183.624 478.301 183.624C478.301 183.624 480.817 171.323 489.354 167.096C497.886 162.864 509.205 168.3 509.205 168.3C509.205 168.3 506.689 180.601 498.157 184.834Z" fill="url(#paint1_linear_45_951)"/>
<path d="M124.507 169.001C133.235 174.232 145.757 169.396 145.757 169.396C145.757 169.396 144.119 156.081 135.386 150.855C126.658 145.625 114.141 150.454 114.141 150.454C114.141 150.454 115.778 163.769 124.507 169.001Z" fill="url(#paint2_linear_45_951)"/>
<path d="M447.351 304.031C444.934 304.031 442.974 302.071 442.974 299.653C442.974 297.236 444.934 295.276 447.351 295.276C449.769 295.276 451.729 297.236 451.729 299.653C451.729 302.071 449.769 304.031 447.351 304.031Z" fill="#E1E4E5"/>
<path d="M111.802 274.594C108.309 274.594 105.478 271.763 105.478 268.27C105.478 264.778 108.309 261.947 111.802 261.947C115.294 261.947 118.125 264.778 118.125 268.27C118.125 271.763 115.294 274.594 111.802 274.594Z" fill="#E1E4E5"/>
<path d="M489.045 282.354C486.387 282.354 484.232 280.199 484.232 277.541C484.232 274.883 486.387 272.728 489.045 272.728C491.703 272.728 493.857 274.883 493.857 277.541C493.857 280.199 491.703 282.354 489.045 282.354Z" fill="#E1E4E5"/>
<path d="M396.75 163.472C393.795 163.472 391.4 161.077 391.4 158.122C391.4 155.167 393.795 152.772 396.75 152.772C399.704 152.772 402.1 155.167 402.1 158.122C402.1 161.077 399.704 163.472 396.75 163.472Z" fill="#E1E4E5"/>
<path d="M88.3593 167.64C88.3593 170.294 86.2082 172.445 83.5547 172.445C80.9011 172.445 78.75 170.294 78.75 167.64C78.75 164.987 80.9011 162.836 83.5547 162.836C86.2082 162.836 88.3593 164.987 88.3593 167.64Z" fill="#E1E4E5"/>
<path d="M250.454 80.6782C246.925 80.6782 244.063 77.8167 244.063 74.2868C244.063 70.757 246.925 67.8955 250.454 67.8955C253.984 67.8955 256.846 70.757 256.846 74.2868C256.846 77.8167 253.984 80.6782 250.454 80.6782Z" fill="#E1E4E5"/>
<path d="M434.156 226.33C431.44 226.33 429.239 224.569 429.239 222.396C429.239 220.224 431.44 218.463 434.156 218.463C436.871 218.463 439.072 220.224 439.072 222.396C439.072 224.569 436.871 226.33 434.156 226.33Z" fill="#E1E4E5"/>
<path d="M369.044 63.4535C370.473 68.7878 367.308 74.2708 361.973 75.7002C356.639 77.1295 351.156 73.9639 349.727 68.6296C348.297 63.2953 351.463 57.8123 356.797 56.3829C362.132 54.9536 367.615 58.1192 369.044 63.4535Z" fill="#E1E4E5"/>
<path d="M148.174 135.201H148.244C148.658 141.078 153.028 141.169 153.028 141.169C153.028 141.169 148.21 141.263 148.21 148.053C148.21 141.263 143.39 141.169 143.39 141.169C143.39 141.169 147.759 141.078 148.174 135.201ZM140.852 289.025H140.919C141.317 294.883 145.513 294.973 145.513 294.973C145.513 294.973 140.886 295.067 140.886 301.837C140.886 295.067 136.26 294.973 136.26 294.973C136.26 294.973 140.454 294.883 140.852 289.025Z" fill="#E1E4E5"/>
<path fill-rule="evenodd" clip-rule="evenodd" d="M162.151 195.616H207.911C212.003 195.616 213.765 190.298 210.417 187.94L210.276 187.839C205.509 184.551 199.253 184.85 199.253 184.85C199.253 184.85 198.36 167.054 181.528 167.054C166.31 167.054 160.241 182.048 158.053 190.308C157.341 192.992 159.385 195.616 162.151 195.616Z" fill="url(#paint3_linear_45_951)"/>
<path fill-rule="evenodd" clip-rule="evenodd" d="M79.9426 270.587H42.1906C38.8153 270.587 37.3606 266.2 40.1226 264.254C40.1613 264.226 40.2006 264.198 40.24 264.171C44.1726 261.458 49.3333 261.705 49.3333 261.705C49.3333 261.705 50.0706 247.024 63.9566 247.024C76.5113 247.024 81.518 259.393 83.324 266.208C83.9106 268.422 82.2246 270.587 79.9426 270.587Z" fill="url(#paint4_linear_45_951)"/>
<path fill-rule="evenodd" clip-rule="evenodd" d="M413.49 204.181H459.25C463.341 204.181 465.103 198.863 461.756 196.505C461.709 196.471 461.662 196.437 461.614 196.405C456.847 193.116 450.591 193.415 450.591 193.415C450.591 193.415 449.698 175.62 432.866 175.62C417.648 175.62 411.58 190.613 409.39 198.873C408.68 201.557 410.723 204.181 413.49 204.181Z" fill="url(#paint5_linear_45_951)"/>
<path fill-rule="evenodd" clip-rule="evenodd" d="M132.381 223.896H82.8433C78.8333 223.896 77.1033 218.763 80.3866 216.486L80.5253 216.391C85.1993 213.215 91.3326 213.504 91.3326 213.504C91.3326 213.504 92.2086 196.329 108.711 196.329C116.871 196.329 123.464 210.113 123.464 210.113C123.464 210.113 134.563 210.113 136.4 218.773C136.955 221.396 135.093 223.896 132.381 223.896Z" fill="url(#paint6_linear_45_951)"/>
<path fill-rule="evenodd" clip-rule="evenodd" d="M554.84 251.308H476.559C470.222 251.308 467.488 243.331 472.676 239.792L472.896 239.643C480.281 234.709 489.974 235.157 489.974 235.157C489.974 235.157 491.358 208.466 517.437 208.466C530.33 208.466 540.75 229.887 540.75 229.887C540.75 229.887 558.288 229.887 561.191 243.345C562.069 247.422 559.127 251.308 554.84 251.308Z" fill="url(#paint7_linear_45_951)"/>
<path d="M194.209 79.3542L306.593 328.251M282.466 79.3542L394.85 328.251M208.146 108.356H295.768M219.574 133.754H307.196M231.004 159.152H318.626M242.432 184.549H330.054M253.862 209.946H341.484M265.29 235.344H352.912" stroke="#E1E4E5" stroke-width="4.284"/>
<path d="M390.25 271.615C392.511 273.095 394.312 275.888 395.029 278.471C395.558 280.463 395.855 282.492 396.384 284.484C396.996 286.701 398.39 288.127 399.73 289.967C400.185 290.587 400.648 291.254 400.999 291.962C401.342 292.623 401.26 293.471 402.098 293.339C402.936 293.206 403.201 292.163 403.184 291.45C403.111 289.624 401.962 288.542 401.075 287.155C401.214 287.132 401.328 287.091 401.486 287.042C402.743 288.657 403.61 290.524 404.563 292.33C405.379 293.871 406.408 295.856 407.738 297.029C408.265 297.495 409.034 297.684 409.706 297.554C410.237 297.446 410.764 297.005 410.683 296.493C410.646 296.26 410.497 296.069 410.534 295.848C410.558 295.702 410.656 295.567 410.781 295.452C411.082 295.094 411.364 294.763 411.666 294.406C412.23 293.744 411.482 291.882 411.51 290.995C411.517 290.588 411.624 290.214 411.659 289.826C411.742 289.146 411.732 288.479 411.63 287.827C411.013 283.917 407.5 281.608 404.798 279.148C401.392 276.012 399.004 271.761 398.118 267.201M275.244 155.359C274.946 152.71 274.62 150.042 274.302 147.42C274.021 145.032 273.492 142.586 273.516 140.173C273.549 138.713 273.821 137.262 274.12 135.832C274.294 134.969 274.468 134.107 274.87 133.328C275.453 132.186 277.791 130.219 276.904 128.832C275.157 130.158 273.402 131.436 271.403 132.372C270.828 132.654 270.198 132.896 269.531 132.906C268.745 132.91 267.992 132.528 267.334 132.131C264.994 130.759 262.96 128.909 261.336 126.78C259.774 124.736 258.152 122.774 256.78 120.58C256.684 120.428 256.616 120.296 256.462 120.225C256.2 120.076 255.869 120.247 255.638 120.45C254.923 121.208 255.141 122.438 255.594 123.344C256.013 124.184 257.01 125.363 256.978 126.37C256.934 127.45 255.684 128.148 255.914 129.305C256.007 129.744 256.299 130.08 256.412 130.491C256.7 131.566 255.716 132.581 255.532 133.683C255.297 134.913 256.06 136.128 256.854 137.077C258.625 139.23 260.818 141.032 263.25 142.389C265.105 143.409 265.115 145.888 265.352 147.998C265.59 150.107 265.494 152.222 265.498 154.368C265.496 154.654 265.501 154.988 265.665 155.272C265.795 155.49 265.984 155.627 266.219 155.757C267.779 156.728 269.676 156.953 271.53 157.066C272.158 157.11 272.831 157.147 273.441 156.932C274.071 156.689 275.32 155.991 275.244 155.359Z" fill="#F8AE9D"/>
<path d="M318.875 152.145C316.768 154.362 316.28 157.469 316.877 160.499C317.374 163.045 318.795 165.397 320.87 166.907C321.166 167.123 321.51 167.331 321.896 167.365C322.857 167.405 323.347 166.277 323.607 165.354C324.038 163.855 324.038 162.495 324.284 161.025C324.529 159.555 325.578 158.339 325.529 156.821C325.468 155.375 326.232 151.151 325.098 150.161C323.714 148.948 320.487 150.722 319.394 151.657C319.223 151.78 319.059 151.949 318.875 152.145Z" fill="#25432D"/>
<path d="M339.409 143.441C339.409 143.441 348.649 142.926 349.358 159.556C350.145 178.043 357.7 175.814 367.632 191.808C373.438 201.153 364.756 215.656 350.422 213.835C336.086 212.022 323.56 206.41 315.104 207.35C306.648 208.291 308.478 186.636 317.336 180.831C326.195 175.026 310.834 154.044 322.328 146.64C333.824 139.234 339.409 143.441 339.409 143.441Z" fill="#25432D"/>
<path d="M316.93 170.985C316.902 172.163 316.897 173.341 316.915 174.518C316.998 176.557 320.389 177.334 321.876 177.839C322.579 178.062 323.282 178.285 323.997 178.434C324.291 178.483 325.404 178.427 325.593 178.564C326.421 179.125 326.623 187.061 327.077 187.061C331.305 187.166 335.471 188.097 339.341 189.802C338.413 180.597 342.087 171.071 339.425 162.212C338.318 158.522 336.123 155.195 333.201 152.697C331.297 151.065 327.161 148.593 324.687 150.295C323.935 150.819 323.386 151.574 322.91 152.341C319.391 157.858 317.181 164.409 316.93 170.985Z" fill="#F8AE9D"/>
<path d="M387.696 221.955C388.732 220.295 388.896 218.256 388.788 216.326C388.318 208.041 383.33 200.632 377.315 194.953C371.28 189.259 364.145 184.895 357.713 179.684C356.044 178.328 354.38 176.882 352.389 176.033C350.398 175.185 348 175 346.16 176.148C344.862 176.952 344.016 178.318 343.461 179.716C342.244 182.774 342.229 186.149 342.431 189.404C342.678 193.509 343.246 197.606 344.48 201.485C345.467 204.613 347.263 207.915 350.388 208.838C350.933 212.509 352.478 216.06 354.87 218.904C357.606 222.165 361.266 224.494 365.132 226.26C368.695 227.89 372.649 229.126 376.486 228.362C378.762 227.922 380.842 226.83 382.881 225.709C384.694 224.762 386.584 223.715 387.696 221.955ZM354.89 212.996L353.076 209.304C353.535 209.401 353.964 209.538 354.388 209.764C355.53 210.409 356.052 212.37 354.89 212.996Z" fill="#25432D"/>
<path d="M327.457 186.625C323.577 186.975 320.761 190.449 316.885 190.679C311.943 190.957 306.499 189.717 301.56 189.256C297.542 188.888 293.081 188.28 290.535 185.151C290.237 184.769 289.957 184.359 289.521 184.166C289.039 183.951 287.87 183.802 287.61 183.342C284.817 178.418 282.568 173.198 280.884 167.828C280.353 166.123 275.596 151.247 275.868 151.157C273.879 151.714 271.857 152.115 269.818 152.372C267.193 152.703 264.712 154.788 264.668 157.433C264.619 160.899 264.597 164.386 264.9 167.821C265.722 177.114 268.975 186.239 274.543 193.709C280.281 201.393 288.631 206.813 297.7 210.36C303.566 212.654 307.7 218.881 310.665 224.437C313.399 229.517 316.466 233.231 317.365 239.077C318.161 244.271 317.819 249.669 316.327 254.723C316.187 255.199 316.027 255.701 316.062 256.22C316.093 256.573 316.172 256.919 316.317 257.229C317.174 259.337 319.009 260.837 320.802 262.223C328.798 268.453 338.955 273.41 348.665 276.435C359.571 279.79 367.055 265.021 364.022 254.021C361.735 245.722 355.975 238.854 354.651 230.308C354.249 227.765 356.885 227.494 358.81 229.205C363.995 233.813 371.528 236.163 375.948 241.762C379.527 246.302 380.474 252.307 382.201 257.808C383.346 261.486 384.915 265.05 386.928 268.336C388.601 271.066 391.729 272.811 394.812 271.95C398.686 270.869 399.75 266.394 398.627 262.532C396.784 256.193 394.738 249.968 393.091 243.518C392.525 241.293 391.925 239.003 390.624 237.109C389.113 234.937 386.825 233.438 384.774 231.781C379.492 227.486 375.707 221.642 371.411 216.332C366.015 209.638 359.751 203.695 352.783 198.66C350.087 196.7 347.268 194.855 344.455 193.056C342.425 191.751 340.404 190.431 338.392 189.099C337.571 188.584 336.77 188.042 335.871 187.635C333.135 186.469 330.447 186.368 327.457 186.625Z" fill="url(#paint8_linear_45_951)"/>
<path fill-rule="evenodd" clip-rule="evenodd" d="M499.722 347.7C535.73 347.7 518.883 298.045 473.265 309.905C470.739 240.957 341.512 190.51 288.076 283.504C272.968 273.107 239.043 292.745 246.555 309.905C229.774 311.149 216.571 312.837 206.299 315.073C182.582 320.236 187.277 347.467 211.724 347.277L499.722 347.7Z" fill="#E1E4E5" stroke="#E1E4E5" stroke-width="4.284"/>
<path fill-rule="evenodd" clip-rule="evenodd" d="M112.703 349.424H373.084C397.526 349.424 396.404 329.143 388.421 322.076C380.238 314.834 364.069 317.771 364.069 317.771C364.069 317.771 359.256 304.13 343.411 297.488C329.397 291.614 314.715 294.409 314.715 294.409C314.715 294.409 314.715 285.047 305.741 277.294C296.767 269.539 284.802 270.293 284.802 270.293C284.802 270.293 276.577 218.668 221.613 218.668C166.649 218.668 160.293 267.278 160.293 267.278C160.293 267.278 147.955 267.278 138.98 275.568C130.007 283.858 128.885 293.278 128.885 293.278C128.885 293.278 98.8739 289.203 89.9979 315.293C84.7092 330.843 95.5759 349.424 112.703 349.424Z" fill="url(#paint9_linear_45_951)"/>
<g filter="url(#filter0_d_45_951)">
<path d="M256.797 104.337C255.741 103.412 254.081 103.976 253.807 105.353L247.361 137.811C247.087 139.188 248.406 140.344 249.735 139.892L281.068 129.246C282.397 128.795 282.739 127.074 281.683 126.149L256.797 104.337Z" fill="url(#paint10_linear_45_951)"/>
</g>
<defs>
<filter id="filter0_d_45_951" x="243.324" y="103.883" width="42.9805" height="44.1084" filterUnits="userSpaceOnUse" color-interpolation-filters="sRGB">
<feFlood flood-opacity="0" result="BackgroundImageFix"/>
<feColorMatrix in="SourceAlpha" type="matrix" values="0 0 0 0 0 0 0 0 0 0 0 0 0 0 0 0 0 0 127 0" result="hardAlpha"/>
<feOffset dy="4"/>
<feGaussianBlur stdDeviation="2"/>
<feComposite in2="hardAlpha" operator="out"/>
<feColorMatrix type="matrix" values="0 0 0 0 0.996078 0 0 0 0 0.996078 0 0 0 0 0.996078 0 0 0 1 0"/>
<feBlend mode="normal" in2="BackgroundImageFix" result="effect1_dropShadow_45_951"/>
<feBlend mode="normal" in="SourceGraphic" in2="effect1_dropShadow_45_951" result="shape"/>
</filter>
<linearGradient id="paint0_linear_45_951" x1="385.056" y1="171.114" x2="343.325" y2="-16.4057" gradientUnits="userSpaceOnUse">
<stop stop-color="white"/>
<stop offset="1" stop-color="#EEEEEE"/>
</linearGradient>
<linearGradient id="paint1_linear_45_951" x1="465.393" y1="198.035" x2="535.765" y2="142.371" gradientUnits="userSpaceOnUse">
<stop stop-color="white"/>
<stop offset="1" stop-color="#EEEEEE"/>
</linearGradient>
<linearGradient id="paint2_linear_45_951" x1="158.283" y1="185.839" x2="88.052" y2="120.587" gradientUnits="userSpaceOnUse">
<stop stop-color="white"/>
<stop offset="1" stop-color="#EEEEEE"/>
</linearGradient>
<linearGradient id="paint3_linear_45_951" x1="186.2" y1="211.628" x2="185.737" y2="135.978" gradientUnits="userSpaceOnUse">
<stop stop-color="white"/>
<stop offset="1" stop-color="#EEEEEE"/>
</linearGradient>
<linearGradient id="paint4_linear_45_951" x1="60.102" y1="283.797" x2="60.4846" y2="221.385" gradientUnits="userSpaceOnUse">
<stop stop-color="white"/>
<stop offset="1" stop-color="#EEEEEE"/>
</linearGradient>
<linearGradient id="paint5_linear_45_951" x1="437.538" y1="220.194" x2="437.075" y2="144.543" gradientUnits="userSpaceOnUse">
<stop stop-color="white"/>
<stop offset="1" stop-color="#EEEEEE"/>
</linearGradient>
<linearGradient id="paint6_linear_45_951" x1="108.813" y1="239.351" x2="108.408" y2="166.334" gradientUnits="userSpaceOnUse">
<stop stop-color="white"/>
<stop offset="1" stop-color="#EEEEEE"/>
</linearGradient>
<linearGradient id="paint7_linear_45_951" x1="517.598" y1="275.327" x2="516.978" y2="161.85" gradientUnits="userSpaceOnUse">
<stop stop-color="white"/>
<stop offset="1" stop-color="#EEEEEE"/>
</linearGradient>
<linearGradient id="paint8_linear_45_951" x1="264.639" y1="214.974" x2="400.345" y2="214.974" gradientUnits="userSpaceOnUse">
<stop stop-color="#2DA44A"/>
<stop offset="0.5" stop-color="#3DD6B3"/>
<stop offset="1" stop-color="#2C7FA3"/>
</linearGradient>
<linearGradient id="paint9_linear_45_951" x1="247.588" y1="422.733" x2="245.859" y2="76.3902" gradientUnits="userSpaceOnUse">
<stop stop-color="white"/>
<stop offset="1" stop-color="#EEEEEE"/>
</linearGradient>
<linearGradient id="paint10_linear_45_951" x1="247.324" y1="121.937" x2="282.305" y2="121.937" gradientUnits="userSpaceOnUse">
<stop stop-color="#2DA44A"/>
<stop offset="0.5" stop-color="#3DD6B3"/>
<stop offset="1" stop-color="#2C7FA3"/>
</linearGradient>
</defs>
</svg>
