<svg width="1109" height="261" viewBox="0 0 1109 261" fill="none" xmlns="http://www.w3.org/2000/svg">
<g filter="url(#filter0_d_56_886)">
<path d="M40.6148 229.536C33.4468 229.536 26.5774 228.597 20.0068 226.72C13.4361 224.757 8.14545 222.24 4.13478 219.168L11.1748 203.552C15.0148 206.283 19.5374 208.544 24.7428 210.336C30.0334 212.043 35.3668 212.896 40.7428 212.896C44.8388 212.896 48.1241 212.512 50.5988 211.744C53.1588 210.891 55.0361 209.739 56.2308 208.288C57.4255 206.837 58.0228 205.173 58.0228 203.296C58.0228 200.907 57.0841 199.029 55.2068 197.664C53.3295 196.213 50.8548 195.061 47.7828 194.208C44.7108 193.269 41.2974 192.416 37.5428 191.648C33.8734 190.795 30.1614 189.771 26.4068 188.576C22.7374 187.381 19.3668 185.845 16.2948 183.968C13.2228 182.091 10.7054 179.616 8.74278 176.544C6.86545 173.472 5.92678 169.547 5.92678 164.768C5.92678 159.648 7.29211 154.997 10.0228 150.816C12.8388 146.549 17.0201 143.179 22.5668 140.704C28.1988 138.144 35.2388 136.864 43.6868 136.864C49.3188 136.864 54.8655 137.547 60.3268 138.912C65.7881 140.192 70.6095 142.155 74.7908 144.8L68.3908 160.544C64.2095 158.155 60.0281 156.405 55.8468 155.296C51.6654 154.101 47.5695 153.504 43.5588 153.504C39.5481 153.504 36.2628 153.973 33.7028 154.912C31.1428 155.851 29.3081 157.088 28.1988 158.624C27.0894 160.075 26.5348 161.781 26.5348 163.744C26.5348 166.048 27.4734 167.925 29.3508 169.376C31.2281 170.741 33.7028 171.851 36.7748 172.704C39.8468 173.557 43.2174 174.411 46.8868 175.264C50.6415 176.117 54.3535 177.099 58.0228 178.208C61.7775 179.317 65.1908 180.811 68.2628 182.688C71.3348 184.565 73.8094 187.04 75.6868 190.112C77.6494 193.184 78.6308 197.067 78.6308 201.76C78.6308 206.795 77.2228 211.403 74.4068 215.584C71.5908 219.765 67.3668 223.136 61.7348 225.696C56.1881 228.256 49.1481 229.536 40.6148 229.536ZM107.904 213.92L108.416 189.6L140.544 159.136H164.352L133.504 190.496L123.136 198.944L107.904 213.92ZM91.3918 228V133.024H111.36V228H91.3918ZM142.72 228L119.424 199.072L131.968 183.584L166.912 228H142.72ZM207.193 229.024C199.342 229.024 192.43 227.488 186.457 224.416C180.569 221.344 176.003 217.163 172.761 211.872C169.518 206.496 167.897 200.395 167.897 193.568C167.897 186.656 169.475 180.555 172.633 175.264C175.875 169.888 180.27 165.707 185.817 162.72C191.363 159.648 197.635 158.112 204.633 158.112C211.374 158.112 217.433 159.563 222.809 162.464C228.27 165.28 232.579 169.376 235.737 174.752C238.894 180.043 240.473 186.4 240.473 193.824C240.473 194.592 240.43 195.488 240.345 196.512C240.259 197.451 240.174 198.347 240.089 199.2H184.153V187.552H229.593L221.913 191.008C221.913 187.424 221.187 184.309 219.737 181.664C218.286 179.019 216.281 176.971 213.721 175.52C211.161 173.984 208.174 173.216 204.761 173.216C201.347 173.216 198.318 173.984 195.673 175.52C193.113 176.971 191.107 179.061 189.657 181.792C188.206 184.437 187.481 187.595 187.481 191.264V194.336C187.481 198.091 188.291 201.419 189.913 204.32C191.619 207.136 193.966 209.312 196.953 210.848C200.025 212.299 203.609 213.024 207.705 213.024C211.374 213.024 214.574 212.469 217.305 211.36C220.121 210.251 222.681 208.587 224.985 206.368L235.609 217.888C232.451 221.472 228.483 224.245 223.705 226.208C218.926 228.085 213.422 229.024 207.193 229.024ZM287.943 229.024C280.092 229.024 273.18 227.488 267.207 224.416C261.319 221.344 256.753 217.163 253.511 211.872C250.268 206.496 248.647 200.395 248.647 193.568C248.647 186.656 250.225 180.555 253.383 175.264C256.625 169.888 261.02 165.707 266.567 162.72C272.113 159.648 278.385 158.112 285.383 158.112C292.124 158.112 298.183 159.563 303.559 162.464C309.02 165.28 313.329 169.376 316.487 174.752C319.644 180.043 321.223 186.4 321.223 193.824C321.223 194.592 321.18 195.488 321.095 196.512C321.009 197.451 320.924 198.347 320.839 199.2H264.903V187.552H310.343L302.663 191.008C302.663 187.424 301.937 184.309 300.487 181.664C299.036 179.019 297.031 176.971 294.471 175.52C291.911 173.984 288.924 173.216 285.511 173.216C282.097 173.216 279.068 173.984 276.423 175.52C273.863 176.971 271.857 179.061 270.407 181.792C268.956 184.437 268.231 187.595 268.231 191.264V194.336C268.231 198.091 269.041 201.419 270.663 204.32C272.369 207.136 274.716 209.312 277.703 210.848C280.775 212.299 284.359 213.024 288.455 213.024C292.124 213.024 295.324 212.469 298.055 211.36C300.871 210.251 303.431 208.587 305.735 206.368L316.359 217.888C313.201 221.472 309.233 224.245 304.455 226.208C299.676 228.085 294.172 229.024 287.943 229.024ZM334.517 228V133.024H354.485V228H334.517ZM405.785 229.024C398.446 229.024 391.918 227.488 386.201 224.416C380.569 221.344 376.089 217.163 372.761 211.872C369.518 206.496 367.897 200.395 367.897 193.568C367.897 186.656 369.518 180.555 372.761 175.264C376.089 169.888 380.569 165.707 386.201 162.72C391.918 159.648 398.446 158.112 405.785 158.112C413.038 158.112 419.523 159.648 425.241 162.72C430.958 165.707 435.438 169.845 438.681 175.136C441.923 180.427 443.545 186.571 443.545 193.568C443.545 200.395 441.923 206.496 438.681 211.872C435.438 217.163 430.958 221.344 425.241 224.416C419.523 227.488 413.038 229.024 405.785 229.024ZM405.785 212.64C409.113 212.64 412.099 211.872 414.745 210.336C417.39 208.8 419.481 206.624 421.017 203.808C422.553 200.907 423.321 197.493 423.321 193.568C423.321 189.557 422.553 186.144 421.017 183.328C419.481 180.512 417.39 178.336 414.745 176.8C412.099 175.264 409.113 174.496 405.785 174.496C402.457 174.496 399.47 175.264 396.825 176.8C394.179 178.336 392.046 180.512 390.425 183.328C388.889 186.144 388.121 189.557 388.121 193.568C388.121 197.493 388.889 200.907 390.425 203.808C392.046 206.624 394.179 208.8 396.825 210.336C399.47 211.872 402.457 212.64 405.785 212.64Z" fill="#2DA44A"/>
<path d="M455.582 199.968V183.968H491.806V199.968H455.582Z" fill="#3DD6B3"/>
<path d="M536.74 229.536C529.572 229.536 522.702 228.597 516.132 226.72C509.561 224.757 504.27 222.24 500.26 219.168L507.3 203.552C511.14 206.283 515.662 208.544 520.868 210.336C526.158 212.043 531.492 212.896 536.868 212.896C540.964 212.896 544.249 212.512 546.724 211.744C549.284 210.891 551.161 209.739 552.356 208.288C553.55 206.837 554.148 205.173 554.148 203.296C554.148 200.907 553.209 199.029 551.332 197.664C549.454 196.213 546.98 195.061 543.908 194.208C540.836 193.269 537.422 192.416 533.668 191.648C529.998 190.795 526.286 189.771 522.532 188.576C518.862 187.381 515.492 185.845 512.42 183.968C509.348 182.091 506.83 179.616 504.868 176.544C502.99 173.472 502.052 169.547 502.052 164.768C502.052 159.648 503.417 154.997 506.148 150.816C508.964 146.549 513.145 143.179 518.692 140.704C524.324 138.144 531.364 136.864 539.812 136.864C545.444 136.864 550.99 137.547 556.452 138.912C561.913 140.192 566.734 142.155 570.916 144.8L564.516 160.544C560.334 158.155 556.153 156.405 551.972 155.296C547.79 154.101 543.694 153.504 539.684 153.504C535.673 153.504 532.388 153.973 529.828 154.912C527.268 155.851 525.433 157.088 524.324 158.624C523.214 160.075 522.66 161.781 522.66 163.744C522.66 166.048 523.598 167.925 525.476 169.376C527.353 170.741 529.828 171.851 532.9 172.704C535.972 173.557 539.342 174.411 543.012 175.264C546.766 176.117 550.478 177.099 554.148 178.208C557.902 179.317 561.316 180.811 564.388 182.688C567.46 184.565 569.934 187.04 571.812 190.112C573.774 193.184 574.756 197.067 574.756 201.76C574.756 206.795 573.348 211.403 570.532 215.584C567.716 219.765 563.492 223.136 557.86 225.696C552.313 228.256 545.273 229.536 536.74 229.536ZM604.029 213.92L604.541 189.6L636.669 159.136H660.477L629.629 190.496L619.261 198.944L604.029 213.92ZM587.517 228V133.024H607.485V228H587.517ZM638.845 228L615.549 199.072L628.093 183.584L663.037 228H638.845ZM701.91 229.024C694.571 229.024 688.043 227.488 682.326 224.416C676.694 221.344 672.214 217.163 668.886 211.872C665.643 206.496 664.022 200.395 664.022 193.568C664.022 186.656 665.643 180.555 668.886 175.264C672.214 169.888 676.694 165.707 682.326 162.72C688.043 159.648 694.571 158.112 701.91 158.112C709.163 158.112 715.648 159.648 721.366 162.72C727.083 165.707 731.563 169.845 734.806 175.136C738.048 180.427 739.67 186.571 739.67 193.568C739.67 200.395 738.048 206.496 734.806 211.872C731.563 217.163 727.083 221.344 721.366 224.416C715.648 227.488 709.163 229.024 701.91 229.024ZM701.91 212.64C705.238 212.64 708.224 211.872 710.87 210.336C713.515 208.8 715.606 206.624 717.142 203.808C718.678 200.907 719.446 197.493 719.446 193.568C719.446 189.557 718.678 186.144 717.142 183.328C715.606 180.512 713.515 178.336 710.87 176.8C708.224 175.264 705.238 174.496 701.91 174.496C698.582 174.496 695.595 175.264 692.95 176.8C690.304 178.336 688.171 180.512 686.55 183.328C685.014 186.144 684.246 189.557 684.246 193.568C684.246 197.493 685.014 200.907 686.55 203.808C688.171 206.624 690.304 208.8 692.95 210.336C695.595 211.872 698.582 212.64 701.91 212.64ZM785.785 229.024C778.446 229.024 771.918 227.488 766.201 224.416C760.569 221.344 756.089 217.163 752.761 211.872C749.518 206.496 747.897 200.395 747.897 193.568C747.897 186.656 749.518 180.555 752.761 175.264C756.089 169.888 760.569 165.707 766.201 162.72C771.918 159.648 778.446 158.112 785.785 158.112C793.038 158.112 799.523 159.648 805.241 162.72C810.958 165.707 815.438 169.845 818.681 175.136C821.923 180.427 823.545 186.571 823.545 193.568C823.545 200.395 821.923 206.496 818.681 211.872C815.438 217.163 810.958 221.344 805.241 224.416C799.523 227.488 793.038 229.024 785.785 229.024ZM785.785 212.64C789.113 212.64 792.099 211.872 794.745 210.336C797.39 208.8 799.481 206.624 801.017 203.808C802.553 200.907 803.321 197.493 803.321 193.568C803.321 189.557 802.553 186.144 801.017 183.328C799.481 180.512 797.39 178.336 794.745 176.8C792.099 175.264 789.113 174.496 785.785 174.496C782.457 174.496 779.47 175.264 776.825 176.8C774.179 178.336 772.046 180.512 770.425 183.328C768.889 186.144 768.121 189.557 768.121 193.568C768.121 197.493 768.889 200.907 770.425 203.808C772.046 206.624 774.179 208.8 776.825 210.336C779.47 211.872 782.457 212.64 785.785 212.64ZM877.596 229.024C871.537 229.024 866.332 227.744 861.98 225.184C857.628 222.624 854.3 218.741 851.996 213.536C849.692 208.245 848.54 201.589 848.54 193.568C848.54 185.461 849.734 178.805 852.124 173.6C854.598 168.395 858.012 164.512 862.364 161.952C866.716 159.392 871.793 158.112 877.596 158.112C884.081 158.112 889.884 159.563 895.004 162.464C900.209 165.365 904.305 169.461 907.292 174.752C910.364 180.043 911.9 186.315 911.9 193.568C911.9 200.736 910.364 206.965 907.292 212.256C904.305 217.547 900.209 221.685 895.004 224.672C889.884 227.573 884.081 229.024 877.596 229.024ZM836.892 228V133.024H856.86V173.088L855.58 193.44L855.964 213.92V228H836.892ZM874.14 212.64C877.468 212.64 880.412 211.872 882.972 210.336C885.617 208.8 887.708 206.624 889.244 203.808C890.865 200.907 891.676 197.493 891.676 193.568C891.676 189.557 890.865 186.144 889.244 183.328C887.708 180.512 885.617 178.336 882.972 176.8C880.412 175.264 877.468 174.496 874.14 174.496C870.812 174.496 867.825 175.264 865.18 176.8C862.534 178.336 860.444 180.512 858.908 183.328C857.372 186.144 856.604 189.557 856.604 193.568C856.604 197.493 857.372 200.907 858.908 203.808C860.444 206.624 862.534 208.8 865.18 210.336C867.825 211.872 870.812 212.64 874.14 212.64Z" fill="#2C7FA3"/>
</g>
<g filter="url(#filter1_d_56_886)">
<path d="M932.652 206.366C921.638 201.631 923.102 185.551 934.737 183.473L1022.53 167.788C1030.38 166.384 1037.56 173.028 1036.83 181.034L1032.15 232.445C1031.42 240.45 1023.2 245.29 1015.76 242.092L932.652 206.366Z" fill="url(#paint0_linear_56_886)"/>
<path d="M927.265 148.11C919.358 157.589 904.162 149.628 906.655 137.313L922.482 59.126C924.048 51.3925 932.295 47.4074 939.223 51.0368L973.597 69.0438C980.525 72.6732 982.431 81.977 977.466 87.9295L927.265 148.11Z" fill="url(#paint1_linear_56_886)"/>
<path d="M934.357 179.438C923.026 181.817 915.263 168.315 922.992 159.669L997.065 76.8083C1002.51 70.7143 1012.3 71.7293 1016.37 78.8102L1050.9 138.867C1054.97 145.947 1050.95 154.956 1042.96 156.633L934.357 179.438Z" fill="url(#paint2_linear_56_886)"/>
</g>
<defs>
<filter id="filter0_d_56_886" x="4.13477" y="128.024" width="932.766" height="116.512" filterUnits="userSpaceOnUse" color-interpolation-filters="sRGB">
<feFlood flood-opacity="0" result="BackgroundImageFix"/>
<feColorMatrix in="SourceAlpha" type="matrix" values="0 0 0 0 0 0 0 0 0 0 0 0 0 0 0 0 0 0 127 0" result="hardAlpha"/>
<feOffset dx="15" dy="5"/>
<feGaussianBlur stdDeviation="5"/>
<feComposite in2="hardAlpha" operator="out"/>
<feColorMatrix type="matrix" values="0 0 0 0 0 0 0 0 0 0 0 0 0 0 0 0 0 0 0.25 0"/>
<feBlend mode="normal" in2="BackgroundImageFix" result="effect1_dropShadow_56_886"/>
<feBlend mode="normal" in="SourceGraphic" in2="effect1_dropShadow_56_886" result="shape"/>
</filter>
<filter id="filter1_d_56_886" x="906.383" y="44.6816" width="176.127" height="213.407" filterUnits="userSpaceOnUse" color-interpolation-filters="sRGB">
<feFlood flood-opacity="0" result="BackgroundImageFix"/>
<feColorMatrix in="SourceAlpha" type="matrix" values="0 0 0 0 0 0 0 0 0 0 0 0 0 0 0 0 0 0 127 0" result="hardAlpha"/>
<feOffset dx="20" dy="5"/>
<feGaussianBlur stdDeviation="5"/>
<feComposite in2="hardAlpha" operator="out"/>
<feColorMatrix type="matrix" values="0 0 0 0 0 0 0 0 0 0 0 0 0 0 0 0 0 0 0.25 0"/>
<feBlend mode="normal" in2="BackgroundImageFix" result="effect1_dropShadow_56_886"/>
<feBlend mode="normal" in="SourceGraphic" in2="effect1_dropShadow_56_886" result="shape"/>
</filter>
<linearGradient id="paint0_linear_56_886" x1="945.681" y1="193.682" x2="1049.52" y2="212.678" gradientUnits="userSpaceOnUse">
<stop stop-color="#6CCDCA"/>
<stop offset="1" stop-color="#366766"/>
</linearGradient>
<linearGradient id="paint1_linear_56_886" x1="913.096" y1="156.06" x2="986.214" y2="39.7785" gradientUnits="userSpaceOnUse">
<stop offset="0.138486" stop-color="#2C7FA3"/>
<stop offset="1" stop-color="#10303D"/>
</linearGradient>
<linearGradient id="paint2_linear_56_886" x1="949.209" y1="161.441" x2="1052.58" y2="125.454" gradientUnits="userSpaceOnUse">
<stop stop-color="#2DA44A"/>
<stop offset="1" stop-color="#113E1C"/>
</linearGradient>
</defs>
</svg>
